HIERARCHY
ROOT Hips
{
	OFFSET 0.00000 0.00000 0.00000
	CHANNELS 6 Xposition Yposition Zposition Zrotation Yrotation Xrotation 
	JOINT LHipJoint
	{
		OFFSET 0 0 0
		CHANNELS 3 Zrotation Yrotation Xrotation
		JOINT LeftHip
		{
			OFFSET 1.37590 -1.78394 0.89329
			CHANNELS 3 Zrotation Yrotation Xrotation
			JOINT LeftKnee
			{
				OFFSET 2.47928 -6.81178 0.00000
				CHANNELS 3 Zrotation Yrotation Xrotation
				JOINT LeftAnkle
				{
					OFFSET 2.63345 -7.23535 0.00000
					CHANNELS 3 Zrotation Yrotation Xrotation
					JOINT LeftToe
					{
						OFFSET 0.23938 -0.65768 2.27012
						CHANNELS 3 Zrotation Yrotation Xrotation
						End Site
						{
							OFFSET 0.00000 -0.00000 1.18363
						}
					}
				}
			}
		}
	}
	JOINT RHipJoint
	{
		OFFSET 0 0 0
		CHANNELS 3 Zrotation Yrotation Xrotation
		JOINT RightHip
		{
			OFFSET -1.33617 -1.78394 0.89329
			CHANNELS 3 Zrotation Yrotation Xrotation
			JOINT RightKnee
			{
				OFFSET -2.56922 -7.05888 0.00000
				CHANNELS 3 Zrotation Yrotation Xrotation
				JOINT RightAnkle
				{
					OFFSET -2.56568 -7.04915 0.00000
					CHANNELS 3 Zrotation Yrotation Xrotation
					JOINT RightToe
					{
						OFFSET -0.27533 -0.75646 2.18105
						CHANNELS 3 Zrotation Yrotation Xrotation
						End Site
						{
							OFFSET -0.00000 -0.00000 1.15233
						}
					}
				}
			}
		}
	}
	JOINT lowerback
	{
		OFFSET 0 0 0
		CHANNELS 3 Zrotation Yrotation Xrotation
		JOINT Chest
		{
			OFFSET 0.06190 2.15152 -0.00935
			CHANNELS 3 Zrotation Yrotation Xrotation
			JOINT Chest2
			{
				OFFSET 0.06334 2.15332 0.00872
				CHANNELS 3 Zrotation Yrotation Xrotation
				JOINT lowerneck
				{
					OFFSET 0 0 0
					CHANNELS 3 Zrotation Yrotation Xrotation
					JOINT Neck
					{
						OFFSET -0.04202 1.66908 0.23524
						CHANNELS 3 Zrotation Yrotation Xrotation
						JOINT Head
						{
							OFFSET 0.07510 1.69357 -0.24440
							CHANNELS 3 Zrotation Yrotation Xrotation
							End Site
							{
								OFFSET 0.02556 1.71719 -0.11000
							}
						}
					}
				}
				JOINT LeftCollar
				{
					OFFSET 0 0 0
					CHANNELS 3 Zrotation Yrotation Xrotation
					JOINT LeftShoulder
					{
						OFFSET 3.67168 1.26306 -0.41342
CHANNELS 3 Zrotation Xrotation Yrotation
						JOINT LeftElbow
						{
OFFSET 0 -4.685100 -0.000000
CHANNELS 3 Zrotation Xrotation Yrotation
							JOINT LeftWrist
							{
OFFSET 0 -3.396260 -0.000000
CHANNELS 3 Zrotation Xrotation Yrotation
								JOINT lhand
								{
									OFFSET 0 0 0
CHANNELS 3 Zrotation Xrotation Yrotation
									JOINT LFingers
									{
OFFSET 0 -0.486080 -0.000000
CHANNELS 3 Zrotation Xrotation Yrotation
										End Site
										{
OFFSET 0 -0.391890 -0.000000
										}
									}
								}
								JOINT LThumb
								{
OFFSET 0 0.000000 0.000000
CHANNELS 3 Zrotation Xrotation Yrotation
									End Site
									{
OFFSET 0 -0.397870 0.397870
									}
								}
							}
						}
					}
				}
				JOINT RightCollar
				{
					OFFSET 0 0 0
					CHANNELS 3 Zrotation Yrotation Xrotation
					JOINT RightShoulder
					{
						OFFSET -3.04136 1.42992 -0.76390
CHANNELS 3 Zrotation Xrotation Yrotation
						JOINT RightElbow
						{
OFFSET 0 -5.555760 -0.000000
CHANNELS 3 Zrotation Xrotation Yrotation
							JOINT RightWrist
							{
OFFSET 0 -3.327740 -0.000000
CHANNELS 3 Zrotation Xrotation Yrotation
								JOINT rhand
								{
									OFFSET 0 0 0
CHANNELS 3 Zrotation Xrotation Yrotation
									JOINT RFingers
									{
OFFSET 0 -0.507630 -0.000000
CHANNELS 3 Zrotation Xrotation Yrotation
										End Site
										{
OFFSET 0 -0.409260 -0.000000
										}
									}
								}
								JOINT RThumb
								{
OFFSET 0 0.000000 0.000000
CHANNELS 3 Zrotation Xrotation Yrotation
									End Site
									{
OFFSET 0 -0.415510 0.415510
									}
								}
							}
						}
					}
				}
			}
		}
	}
}
MOTION
Frames: 11
Frame Time: 0.008333333333333333
-6.624376 17.914567 7.300029 -164.005539 -75.919722 169.542402 0.000000 0.000000 0.000000 -16.086661 -10.118282 -16.746662 1.073887 6.587396 18.498492 0.044156 -0.491177 -3.823351 0.000261 0.091453 0.251247 0.000000 0.000000 0.000000 23.125422 0.095988 -14.553290 -8.139894 -16.220798 53.064487 -0.094666 -0.948954 5.561702 -0.143731 -2.442411 6.729994 1.349714 1.724883 -1.768893 1.443908 2.259162 -3.111101 0.722209 1.090444 -2.205893 -15.321041 -11.944725 -10.162814 11.191252 -15.288288 9.315780 4.431787 -7.326459 6.533950 0.000000 0.000000 0.000000 6.028468 5.893910 2.778379 14.142529 -22.937940 2.883581 12.623590 30.123602 -20.741655 0.000000 0.000000 0.000000 -7.125000 0.000000 0.000000 -15.889904 50.505676 2.204229 0.000000 0.000000 0.000000 -4.936070 -2.418493 15.309549 -21.367493 -32.249112 -6.247471 -31.352146 50.517699 43.610792 0.000000 0.000000 0.000000 7.125000 0.000000 0.000000 14.422070 77.769409 -11.071155
-6.796971 17.927575 7.268614 -165.068725 -75.989087 170.464970 0.000000 0.000000 0.000000 -16.630560 -9.898055 -15.873637 1.053629 6.526886 18.321138 0.052196 -0.625654 -4.134216 0.000992 0.202486 0.556303 0.000000 0.000000 0.000000 22.417446 0.135390 -15.718006 -8.481693 -16.461642 54.278628 -0.085420 -2.067850 5.210163 -0.117553 -2.208608 6.082615 1.134465 1.541512 -1.685388 1.517543 2.018975 -3.021705 0.917228 0.977389 -2.169846 -15.132617 -11.789594 -10.318529 10.991171 -15.052747 9.351550 4.366850 -7.212862 6.508513 0.000000 0.000000 0.000000 5.630456 5.935340 3.308276 13.740734 -22.362403 2.728961 12.405147 30.917166 -20.725157 0.000000 0.000000 0.000000 -7.125000 0.000000 0.000000 -16.090751 50.455173 2.213052 0.000000 0.000000 0.000000 -4.035818 -0.825972 14.501779 -19.336231 -29.824117 -5.202098 -28.297070 47.060708 42.311830 0.000000 0.000000 0.000000 7.125000 0.000000 0.000000 16.593524 75.423274 -11.941273
-6.967193 17.940698 7.236962 -166.084526 -76.054038 171.352591 0.000000 0.000000 0.000000 -17.147258 -9.663474 -15.002225 1.030335 6.456578 18.115116 0.061514 -0.764356 -4.472299 0.002048 0.291161 0.799906 0.000000 0.000000 0.000000 21.731378 0.190710 -16.892135 -8.787613 -16.668523 55.351882 -0.064869 -3.195937 4.748129 -0.095872 -1.994776 5.491349 0.934481 1.352199 -1.596300 1.598770 1.770607 -2.932788 1.111819 0.859581 -2.134790 -14.931609 -11.629441 -10.485943 10.789137 -14.810397 9.380153 4.299708 -7.095485 6.481655 0.000000 0.000000 0.000000 5.238069 5.978123 3.795289 13.348427 -21.795231 2.581516 12.173328 31.706021 -20.705340 0.000000 0.000000 0.000000 -7.125000 0.000000 0.000000 -16.302586 50.399486 2.220864 0.000000 0.000000 0.000000 -3.221282 0.709415 13.452354 -17.528838 -27.541082 -4.333654 -25.421826 43.944287 40.870880 0.000000 0.000000 0.000000 7.125000 0.000000 0.000000 18.128655 73.072608 -12.160890
-7.135226 17.953587 7.205246 -167.056731 -76.114095 172.206394 0.000000 0.000000 0.000000 -17.638737 -9.417297 -14.131735 1.004088 6.376370 17.880474 0.071937 -0.902510 -4.826931 0.003168 0.363849 0.999760 0.000000 0.000000 0.000000 21.066404 0.258382 -18.066274 -9.051150 -16.840299 56.266459 -0.033184 -4.330638 4.184792 -0.079122 -1.813800 4.991397 0.750229 1.158150 -1.503577 1.686522 1.515593 -2.843875 1.304773 0.737971 -2.099187 -14.719216 -11.464869 -10.663415 10.587044 -14.562270 9.399290 4.231039 -6.974668 6.452882 0.000000 0.000000 0.000000 4.852252 6.023250 4.228623 12.969579 -21.242459 2.442360 11.930559 32.479553 -20.679032 0.000000 0.000000 0.000000 -7.125000 0.000000 0.000000 -16.521720 50.335969 2.225856 0.000000 0.000000 0.000000 -2.486827 2.189435 12.147420 -15.925302 -25.415618 -3.615890 -22.779277 41.260470 39.350733 0.000000 0.000000 0.000000 7.125000 0.000000 0.000000 19.255617 70.784873 -11.982913
-7.300952 17.966139 7.173402 -167.978748 -76.166137 173.022583 0.000000 0.000000 0.000000 -18.100183 -9.162911 -13.267289 0.975070 6.286251 17.617301 0.083688 -1.040393 -5.195781 0.004148 0.414705 1.139646 0.000000 0.000000 0.000000 20.427247 0.342388 -19.233518 -9.263407 -16.974159 56.996425 0.010038 -5.466320 3.521013 -0.067519 -1.675899 4.610760 0.583193 0.960640 -1.407322 1.781504 1.255592 -2.756409 1.495866 0.613114 -2.064557 -14.495761 -11.296618 -10.850770 10.384365 -14.309576 9.408742 4.160532 -6.851182 6.422360 0.000000 0.000000 0.000000 4.474097 6.070857 4.593203 12.608653 -20.711084 2.313146 11.668269 33.222137 -20.653950 0.000000 0.000000 0.000000 -7.125000 0.000000 0.000000 -16.759352 50.270865 2.232052 0.000000 0.000000 0.000000 -1.834181 3.613986 10.560602 -14.517765 -23.468393 -3.032330 -20.401116 39.099064 37.816703 0.000000 0.000000 0.000000 7.125000 0.000000 0.000000 20.123997 68.622306 -11.575737
-7.464242 17.978033 7.141279 -168.853629 -76.208179 173.808492 0.000000 0.000000 0.000000 -18.531884 -8.903251 -12.411356 0.943409 6.186088 17.325418 0.096578 -1.173768 -5.573046 0.004702 0.443087 1.217471 0.000000 0.000000 0.000000 19.814321 0.445194 -20.381966 -9.415881 -17.067915 57.517288 0.063979 -6.591787 2.765100 -0.061010 -1.593462 4.383428 0.431558 0.760192 -1.308557 1.883078 0.991282 -2.670637 1.685571 0.485583 -2.030296 -14.262247 -11.123712 -11.049394 10.182837 -14.051145 9.409774 4.088949 -6.724317 6.390847 0.000000 0.000000 0.000000 4.104646 6.122697 4.873374 12.271076 -20.209679 2.195249 11.395166 33.915380 -20.621189 0.000000 0.000000 0.000000 -7.125000 0.000000 0.000000 -17.003586 50.196810 2.234638 0.000000 0.000000 0.000000 -1.262297 4.984904 8.685281 -13.292415 -21.710854 -2.562687 -18.286538 37.498322 36.333251 0.000000 0.000000 0.000000 7.125000 0.000000 0.000000 20.842484 66.630740 -11.062764
-7.625359 17.989125 7.108891 -169.699823 -76.241348 174.579102 0.000000 0.000000 0.000000 -18.939178 -8.641986 -11.566760 0.909815 6.077888 17.010671 0.110361 -1.292177 -5.953381 0.004842 0.449539 1.235244 0.000000 0.000000 0.000000 19.223686 0.565934 -21.505403 -9.508968 -17.124281 57.834017 0.126468 -7.696998 1.936002 -0.058783 -1.564415 4.303377 0.288890 0.557274 -1.209548 1.989459 0.723281 -2.585784 1.875774 0.355731 -1.994872 -14.019623 -10.946226 -11.258409 9.983252 -13.787358 9.401908 4.016718 -6.594239 6.358299 0.000000 0.000000 0.000000 3.744013 6.174633 5.075086 11.956187 -19.738702 2.087695 11.109940 34.558274 -20.582017 0.000000 0.000000 0.000000 -7.125000 0.000000 0.000000 -17.255900 50.114941 2.234048 0.000000 0.000000 0.000000 -0.762333 6.308888 6.558426 -12.216223 -20.125426 -2.178101 -16.390987 36.388321 34.907683 0.000000 0.000000 0.000000 7.125000 0.000000 0.000000 21.454817 64.789436 -10.494286
-7.784476 17.999324 7.076057 -170.522371 -76.265525 175.341937 0.000000 0.000000 0.000000 -19.323926 -8.377364 -10.738499 0.874866 5.963095 16.677403 0.124871 -1.393967 -6.330984 0.004552 0.437653 1.202690 0.000000 0.000000 0.000000 18.654078 0.705633 -22.596852 -9.539446 -17.142634 57.937699 0.195781 -8.770249 1.042753 -0.061019 -1.593807 4.384433 0.152571 0.352638 -1.111581 2.099610 0.452603 -2.502038 2.066771 0.224144 -1.957727 -13.767150 -10.764477 -11.477092 9.785455 -13.518797 9.385082 3.943628 -6.461285 6.324512 0.000000 0.000000 0.000000 3.393975 6.228320 5.183489 11.668407 -19.305395 1.991379 10.813441 35.133723 -20.538073 0.000000 0.000000 0.000000 -7.125000 0.000000 0.000000 -17.516249 50.027012 2.230899 0.000000 0.000000 0.000000 -0.333024 7.591129 4.210358 -11.278674 -18.712864 -1.865250 -14.698687 35.736394 33.564995 0.000000 0.000000 0.000000 7.125000 0.000000 0.000000 21.992495 63.108233 -9.910435
-7.941352 18.008567 7.042747 -171.321508 -76.280116 176.098785 0.000000 0.000000 0.000000 -19.685469 -8.108800 -9.933046 0.839254 5.843701 16.331763 0.139990 -1.493658 -6.700933 0.004064 0.413540 1.136116 0.000000 0.000000 0.000000 18.106692 0.866394 -23.647941 -9.502222 -17.120233 57.811141 0.270129 -9.795995 0.094609 -0.068196 -1.684634 4.634986 0.020699 0.146998 -1.015416 2.213034 0.180207 -2.420177 2.259041 0.091283 -1.919124 -13.505287 -10.578581 -11.704332 9.590310 -13.246285 9.359083 3.869986 -6.325868 6.289661 0.000000 0.000000 0.000000 3.056649 6.285466 5.179966 11.412284 -18.917478 1.907443 10.508125 35.623792 -20.489949 0.000000 0.000000 0.000000 -7.125000 0.000000 0.000000 -17.782348 49.934050 2.225090 0.000000 0.000000 0.000000 0.023770 8.831541 1.665970 -10.473042 -17.475816 -1.614362 -13.196023 35.512073 32.327422 0.000000 0.000000 0.000000 7.125000 0.000000 0.000000 22.476624 61.596020 -9.339422
-8.096099 18.016398 7.008760 -172.084738 -76.285532 176.835952 0.000000 0.000000 0.000000 -20.019180 -7.836479 -9.156477 0.803965 5.722373 15.981059 0.155539 -1.595942 -7.061651 0.003442 0.378545 1.040027 0.000000 0.000000 0.000000 17.586917 1.049006 -24.648032 -9.391795 -17.053225 57.435246 0.346868 -10.756947 -0.897333 -0.081586 -1.840928 5.066267 -0.104495 -0.059183 -0.920804 2.330264 -0.093447 -2.340648 2.451975 -0.042577 -1.879540 -13.237247 -10.388588 -11.939471 9.401439 -12.970012 9.323982 3.797294 -6.188056 6.254150 0.000000 0.000000 0.000000 2.733261 6.342467 5.062592 11.190032 -18.578829 1.836087 10.198529 36.026184 -20.435008 0.000000 0.000000 0.000000 -7.125000 0.000000 0.000000 -18.048865 49.834307 2.214998 0.000000 0.000000 0.000000 0.303686 10.035612 -1.011224 -9.799407 -16.424459 -1.418357 -11.863023 35.644844 31.212016 0.000000 0.000000 0.000000 7.125000 0.000000 0.000000 22.929517 60.258353 -8.804997
-8.249098 18.023040 6.974029 -172.813018 -76.282860 177.555459 0.000000 0.000000 0.000000 -20.328424 -7.563397 -8.407427 0.769532 5.601307 15.631809 0.171570 -1.695385 -7.413874 0.002764 0.338865 0.931148 0.000000 0.000000 0.000000 17.091554 1.250804 -25.596187 -9.216421 -16.944696 56.835168 0.422824 -11.646268 -1.915018 -0.101446 -2.051677 5.648533 -0.223703 -0.265158 -0.829133 2.449557 -0.367250 -2.263126 2.644015 -0.177013 -1.838205 -12.964446 -10.195007 -12.178665 9.220025 -12.691489 9.280236 3.726202 -6.048571 6.217858 0.000000 0.000000 0.000000 2.425493 6.400338 4.834621 10.999967 -18.288134 1.775980 9.890944 36.340515 -20.372933 0.000000 0.000000 0.000000 -7.125000 0.000000 0.000000 -18.309748 49.728415 2.200018 0.000000 0.000000 0.000000 0.518454 11.211905 -3.727956 -9.235988 -15.535122 -1.263122 -10.659310 36.002580 30.219405 0.000000 0.000000 0.000000 7.125000 0.000000 0.000000 23.374264 59.078296 -8.321892
